<svg width="639" height="34" viewBox="0 0 639 34" fill="none" xmlns="http://www.w3.org/2000/svg">
<g id="Mode=light,Property 1=text 1" filter="url(#filter0_d_13_7110)">
<g id="vector text">
<path d="M22.72 7.992C22.144 6.936 21.352 6.132 20.344 5.58C19.336 5.028 18.16 4.752 16.816 4.752C15.328 4.752 14.008 5.088 12.856 5.76C11.704 6.432 10.804 7.392 10.156 8.64C9.508 9.888 9.184 11.328 9.184 12.96C9.184 14.64 9.508 16.104 10.156 17.352C10.828 18.6 11.752 19.56 12.928 20.232C14.104 20.904 15.472 21.24 17.032 21.24C18.952 21.24 20.524 20.736 21.748 19.728C22.972 18.696 23.776 17.268 24.16 15.444H15.52V11.592H29.128V15.984C28.792 17.736 28.072 19.356 26.968 20.844C25.864 22.332 24.436 23.532 22.684 24.444C20.956 25.332 19.012 25.776 16.852 25.776C14.428 25.776 12.232 25.236 10.264 24.156C8.32 23.052 6.784 21.528 5.656 19.584C4.552 17.64 4 15.432 4 12.96C4 10.488 4.552 8.28 5.656 6.336C6.784 4.368 8.32 2.844 10.264 1.764C12.232 0.660001 14.416 0.108001 16.816 0.108001C19.648 0.108001 22.108 0.804 24.196 2.196C26.284 3.564 27.724 5.496 28.516 7.992H22.72Z" fill="#333333"/>
<path d="M43.6568 4.5V10.8H52.1168V14.796H43.6568V21.456H53.1968V25.56H38.6168V0.395999H53.1968V4.5H43.6568Z" fill="#333333"/>
<path d="M80.637 0.432001V4.5H73.941V25.56H68.901V4.5H62.205V0.432001H80.637Z" fill="#333333"/>
<path d="M117.372 25.56L111.828 15.768H109.452V25.56H104.412V0.432001H113.844C115.788 0.432001 117.444 0.780001 118.812 1.476C120.18 2.148 121.2 3.072 121.872 4.248C122.568 5.4 122.916 6.696 122.916 8.136C122.916 9.792 122.436 11.292 121.476 12.636C120.516 13.956 119.088 14.868 117.192 15.372L123.204 25.56H117.372ZM109.452 11.988H113.664C115.032 11.988 116.052 11.664 116.724 11.016C117.396 10.344 117.732 9.42 117.732 8.244C117.732 7.092 117.396 6.204 116.724 5.58C116.052 4.932 115.032 4.608 113.664 4.608H109.452V11.988Z" fill="#333333"/>
<path d="M138.275 4.5V10.8H146.735V14.796H138.275V21.456H147.815V25.56H133.235V0.395999H147.815V4.5H138.275Z" fill="#333333"/>
<path d="M173.563 20.772H163.555L161.899 25.56H156.607L165.643 0.395999H171.511L180.547 25.56H175.219L173.563 20.772ZM172.195 16.74L168.559 6.228L164.923 16.74H172.195Z" fill="#333333"/>
<path d="M198.469 0.432001C201.109 0.432001 203.425 0.948001 205.417 1.98C207.433 3.012 208.981 4.488 210.061 6.408C211.165 8.304 211.717 10.512 211.717 13.032C211.717 15.552 211.165 17.76 210.061 19.656C208.981 21.528 207.433 22.98 205.417 24.012C203.425 25.044 201.109 25.56 198.469 25.56H189.685V0.432001H198.469ZM198.289 21.276C200.929 21.276 202.969 20.556 204.409 19.116C205.849 17.676 206.569 15.648 206.569 13.032C206.569 10.416 205.849 8.376 204.409 6.912C202.969 5.424 200.929 4.68 198.289 4.68H194.725V21.276H198.289Z" fill="#333333"/>
<path d="M241.229 0.432001L232.733 16.812V25.56H227.693V16.812L219.161 0.432001H224.849L230.249 11.916L235.613 0.432001H241.229Z" fill="#333333"/>
<path d="M279.75 0.432001V4.5H269.274V10.944H277.302V14.94H269.274V25.56H264.234V0.432001H279.75Z" fill="#333333"/>
<path d="M300.748 25.812C298.396 25.812 296.236 25.26 294.268 24.156C292.3 23.052 290.74 21.528 289.588 19.584C288.436 17.616 287.86 15.396 287.86 12.924C287.86 10.476 288.436 8.28 289.588 6.336C290.74 4.368 292.3 2.832 294.268 1.728C296.236 0.624001 298.396 0.0720015 300.748 0.0720015C303.124 0.0720015 305.284 0.624001 307.228 1.728C309.196 2.832 310.744 4.368 311.872 6.336C313.024 8.28 313.6 10.476 313.6 12.924C313.6 15.396 313.024 17.616 311.872 19.584C310.744 21.528 309.196 23.052 307.228 24.156C305.26 25.26 303.1 25.812 300.748 25.812ZM300.748 21.312C302.26 21.312 303.592 20.976 304.744 20.304C305.896 19.608 306.796 18.624 307.444 17.352C308.092 16.08 308.416 14.604 308.416 12.924C308.416 11.244 308.092 9.78 307.444 8.532C306.796 7.26 305.896 6.288 304.744 5.616C303.592 4.944 302.26 4.608 300.748 4.608C299.236 4.608 297.892 4.944 296.716 5.616C295.564 6.288 294.664 7.26 294.016 8.532C293.368 9.78 293.044 11.244 293.044 12.924C293.044 14.604 293.368 16.08 294.016 17.352C294.664 18.624 295.564 19.608 296.716 20.304C297.892 20.976 299.236 21.312 300.748 21.312Z" fill="#333333"/>
<path d="M336.07 25.56L330.526 15.768H328.15V25.56H323.11V0.432001H332.542C334.486 0.432001 336.142 0.780001 337.51 1.476C338.878 2.148 339.898 3.072 340.57 4.248C341.266 5.4 341.614 6.696 341.614 8.136C341.614 9.792 341.134 11.292 340.174 12.636C339.214 13.956 337.786 14.868 335.89 15.372L341.902 25.56H336.07ZM328.15 11.988H332.362C333.73 11.988 334.75 11.664 335.422 11.016C336.094 10.344 336.43 9.42 336.43 8.244C336.43 7.092 336.094 6.204 335.422 5.58C334.75 4.932 333.73 4.608 332.362 4.608H328.15V11.988Z" fill="#333333"/>
<path d="M383.37 0.432001V4.5H376.674V25.56H371.634V4.5H364.938V0.432001H383.37Z" fill="#333333"/>
<path d="M413.652 0.432001V25.56H408.612V14.868H397.848V25.56H392.808V0.432001H397.848V10.764H408.612V0.432001H413.652Z" fill="#333333"/>
<path d="M429.412 4.5V10.8H437.872V14.796H429.412V21.456H438.952V25.56H424.372V0.395999H438.952V4.5H429.412Z" fill="#333333"/>
<path d="M476.591 25.56L471.047 15.768H468.671V25.56H463.631V0.432001H473.063C475.007 0.432001 476.663 0.780001 478.031 1.476C479.399 2.148 480.419 3.072 481.091 4.248C481.787 5.4 482.135 6.696 482.135 8.136C482.135 9.792 481.655 11.292 480.695 12.636C479.735 13.956 478.307 14.868 476.411 15.372L482.423 25.56H476.591ZM468.671 11.988H472.883C474.251 11.988 475.271 11.664 475.943 11.016C476.615 10.344 476.951 9.42 476.951 8.244C476.951 7.092 476.615 6.204 475.943 5.58C475.271 4.932 474.251 4.608 472.883 4.608H468.671V11.988Z" fill="#333333"/>
<path d="M497.493 4.5V10.8H505.953V14.796H497.493V21.456H507.033V25.56H492.453V0.395999H507.033V4.5H497.493Z" fill="#333333"/>
<path d="M539.945 0.432001L530.729 25.56H524.609L515.393 0.432001H520.793L527.705 20.412L534.581 0.432001H539.945Z" fill="#333333"/>
<path d="M553.767 4.5V10.8H562.227V14.796H553.767V21.456H563.307V25.56H548.727V0.395999H563.307V4.5H553.767Z" fill="#333333"/>
<path d="M589.055 20.772H579.047L577.391 25.56H572.099L581.135 0.395999H587.003L596.039 25.56H590.711L589.055 20.772ZM587.687 16.74L584.051 6.228L580.415 16.74H587.687Z" fill="#333333"/>
<path d="M610.217 21.564H618.497V25.56H605.177V0.432001H610.217V21.564Z" fill="#333333"/>
<path d="M633.976 0L633.4 17.388H629.152L628.54 0H633.976ZM631.384 25.812C630.472 25.812 629.716 25.536 629.116 24.984C628.54 24.408 628.252 23.7 628.252 22.86C628.252 22.02 628.54 21.324 629.116 20.772C629.716 20.196 630.472 19.908 631.384 19.908C632.272 19.908 633.004 20.196 633.58 20.772C634.156 21.324 634.444 22.02 634.444 22.86C634.444 23.7 634.156 24.408 633.58 24.984C633.004 25.536 632.272 25.812 631.384 25.812Z" fill="#333333"/>
</g>
<g id="Mask" clip-path="url(#clip0_13_7110)">
<mask id="mask0_13_7110" style="mask-type:alpha" maskUnits="userSpaceOnUse" x="4" y="0" width="631" height="26">
<g id="vector text_2">
<path d="M22.72 7.992C22.144 6.936 21.352 6.132 20.344 5.58C19.336 5.028 18.16 4.752 16.816 4.752C15.328 4.752 14.008 5.088 12.856 5.76C11.704 6.432 10.804 7.392 10.156 8.64C9.508 9.888 9.184 11.328 9.184 12.96C9.184 14.64 9.508 16.104 10.156 17.352C10.828 18.6 11.752 19.56 12.928 20.232C14.104 20.904 15.472 21.24 17.032 21.24C18.952 21.24 20.524 20.736 21.748 19.728C22.972 18.696 23.776 17.268 24.16 15.444H15.52V11.592H29.128V15.984C28.792 17.736 28.072 19.356 26.968 20.844C25.864 22.332 24.436 23.532 22.684 24.444C20.956 25.332 19.012 25.776 16.852 25.776C14.428 25.776 12.232 25.236 10.264 24.156C8.32 23.052 6.784 21.528 5.656 19.584C4.552 17.64 4 15.432 4 12.96C4 10.488 4.552 8.28 5.656 6.336C6.784 4.368 8.32 2.844 10.264 1.764C12.232 0.660001 14.416 0.108001 16.816 0.108001C19.648 0.108001 22.108 0.804 24.196 2.196C26.284 3.564 27.724 5.496 28.516 7.992H22.72Z" fill="url(#paint0_linear_13_7110)"/>
<path d="M43.6568 4.5V10.8H52.1168V14.796H43.6568V21.456H53.1968V25.56H38.6168V0.395999H53.1968V4.5H43.6568Z" fill="url(#paint1_linear_13_7110)"/>
<path d="M80.637 0.432001V4.5H73.941V25.56H68.901V4.5H62.205V0.432001H80.637Z" fill="url(#paint2_linear_13_7110)"/>
<path d="M117.372 25.56L111.828 15.768H109.452V25.56H104.412V0.432001H113.844C115.788 0.432001 117.444 0.780001 118.812 1.476C120.18 2.148 121.2 3.072 121.872 4.248C122.568 5.4 122.916 6.696 122.916 8.136C122.916 9.792 122.436 11.292 121.476 12.636C120.516 13.956 119.088 14.868 117.192 15.372L123.204 25.56H117.372ZM109.452 11.988H113.664C115.032 11.988 116.052 11.664 116.724 11.016C117.396 10.344 117.732 9.42 117.732 8.244C117.732 7.092 117.396 6.204 116.724 5.58C116.052 4.932 115.032 4.608 113.664 4.608H109.452V11.988Z" fill="url(#paint3_linear_13_7110)"/>
<path d="M138.275 4.5V10.8H146.735V14.796H138.275V21.456H147.815V25.56H133.235V0.395999H147.815V4.5H138.275Z" fill="url(#paint4_linear_13_7110)"/>
<path d="M173.563 20.772H163.555L161.899 25.56H156.607L165.643 0.395999H171.511L180.547 25.56H175.219L173.563 20.772ZM172.195 16.74L168.559 6.228L164.923 16.74H172.195Z" fill="url(#paint5_linear_13_7110)"/>
<path d="M198.469 0.432001C201.109 0.432001 203.425 0.948001 205.417 1.98C207.433 3.012 208.981 4.488 210.061 6.408C211.165 8.304 211.717 10.512 211.717 13.032C211.717 15.552 211.165 17.76 210.061 19.656C208.981 21.528 207.433 22.98 205.417 24.012C203.425 25.044 201.109 25.56 198.469 25.56H189.685V0.432001H198.469ZM198.289 21.276C200.929 21.276 202.969 20.556 204.409 19.116C205.849 17.676 206.569 15.648 206.569 13.032C206.569 10.416 205.849 8.376 204.409 6.912C202.969 5.424 200.929 4.68 198.289 4.68H194.725V21.276H198.289Z" fill="url(#paint6_linear_13_7110)"/>
<path d="M241.229 0.432001L232.733 16.812V25.56H227.693V16.812L219.161 0.432001H224.849L230.249 11.916L235.613 0.432001H241.229Z" fill="url(#paint7_linear_13_7110)"/>
<path d="M279.75 0.432001V4.5H269.274V10.944H277.302V14.94H269.274V25.56H264.234V0.432001H279.75Z" fill="url(#paint8_linear_13_7110)"/>
<path d="M300.748 25.812C298.396 25.812 296.236 25.26 294.268 24.156C292.3 23.052 290.74 21.528 289.588 19.584C288.436 17.616 287.86 15.396 287.86 12.924C287.86 10.476 288.436 8.28 289.588 6.336C290.74 4.368 292.3 2.832 294.268 1.728C296.236 0.624001 298.396 0.0720015 300.748 0.0720015C303.124 0.0720015 305.284 0.624001 307.228 1.728C309.196 2.832 310.744 4.368 311.872 6.336C313.024 8.28 313.6 10.476 313.6 12.924C313.6 15.396 313.024 17.616 311.872 19.584C310.744 21.528 309.196 23.052 307.228 24.156C305.26 25.26 303.1 25.812 300.748 25.812ZM300.748 21.312C302.26 21.312 303.592 20.976 304.744 20.304C305.896 19.608 306.796 18.624 307.444 17.352C308.092 16.08 308.416 14.604 308.416 12.924C308.416 11.244 308.092 9.78 307.444 8.532C306.796 7.26 305.896 6.288 304.744 5.616C303.592 4.944 302.26 4.608 300.748 4.608C299.236 4.608 297.892 4.944 296.716 5.616C295.564 6.288 294.664 7.26 294.016 8.532C293.368 9.78 293.044 11.244 293.044 12.924C293.044 14.604 293.368 16.08 294.016 17.352C294.664 18.624 295.564 19.608 296.716 20.304C297.892 20.976 299.236 21.312 300.748 21.312Z" fill="url(#paint9_linear_13_7110)"/>
<path d="M336.07 25.56L330.526 15.768H328.15V25.56H323.11V0.432001H332.542C334.486 0.432001 336.142 0.780001 337.51 1.476C338.878 2.148 339.898 3.072 340.57 4.248C341.266 5.4 341.614 6.696 341.614 8.136C341.614 9.792 341.134 11.292 340.174 12.636C339.214 13.956 337.786 14.868 335.89 15.372L341.902 25.56H336.07ZM328.15 11.988H332.362C333.73 11.988 334.75 11.664 335.422 11.016C336.094 10.344 336.43 9.42 336.43 8.244C336.43 7.092 336.094 6.204 335.422 5.58C334.75 4.932 333.73 4.608 332.362 4.608H328.15V11.988Z" fill="url(#paint10_linear_13_7110)"/>
<path d="M383.37 0.432001V4.5H376.674V25.56H371.634V4.5H364.938V0.432001H383.37Z" fill="url(#paint11_linear_13_7110)"/>
<path d="M413.652 0.432001V25.56H408.612V14.868H397.848V25.56H392.808V0.432001H397.848V10.764H408.612V0.432001H413.652Z" fill="url(#paint12_linear_13_7110)"/>
<path d="M429.412 4.5V10.8H437.872V14.796H429.412V21.456H438.952V25.56H424.372V0.395999H438.952V4.5H429.412Z" fill="url(#paint13_linear_13_7110)"/>
<path d="M476.591 25.56L471.047 15.768H468.671V25.56H463.631V0.432001H473.063C475.007 0.432001 476.663 0.780001 478.031 1.476C479.399 2.148 480.419 3.072 481.091 4.248C481.787 5.4 482.135 6.696 482.135 8.136C482.135 9.792 481.655 11.292 480.695 12.636C479.735 13.956 478.307 14.868 476.411 15.372L482.423 25.56H476.591ZM468.671 11.988H472.883C474.251 11.988 475.271 11.664 475.943 11.016C476.615 10.344 476.951 9.42 476.951 8.244C476.951 7.092 476.615 6.204 475.943 5.58C475.271 4.932 474.251 4.608 472.883 4.608H468.671V11.988Z" fill="url(#paint14_linear_13_7110)"/>
<path d="M497.493 4.5V10.8H505.953V14.796H497.493V21.456H507.033V25.56H492.453V0.395999H507.033V4.5H497.493Z" fill="url(#paint15_linear_13_7110)"/>
<path d="M539.945 0.432001L530.729 25.56H524.609L515.393 0.432001H520.793L527.705 20.412L534.581 0.432001H539.945Z" fill="url(#paint16_linear_13_7110)"/>
<path d="M553.767 4.5V10.8H562.227V14.796H553.767V21.456H563.307V25.56H548.727V0.395999H563.307V4.5H553.767Z" fill="url(#paint17_linear_13_7110)"/>
<path d="M589.055 20.772H579.047L577.391 25.56H572.099L581.135 0.395999H587.003L596.039 25.56H590.711L589.055 20.772ZM587.687 16.74L584.051 6.228L580.415 16.74H587.687Z" fill="url(#paint18_linear_13_7110)"/>
<path d="M610.217 21.564H618.497V25.56H605.177V0.432001H610.217V21.564Z" fill="url(#paint19_linear_13_7110)"/>
<path d="M633.976 0L633.4 17.388H629.152L628.54 0H633.976ZM631.384 25.812C630.472 25.812 629.716 25.536 629.116 24.984C628.54 24.408 628.252 23.7 628.252 22.86C628.252 22.02 628.54 21.324 629.116 20.772C629.716 20.196 630.472 19.908 631.384 19.908C632.272 19.908 633.004 20.196 633.58 20.772C634.156 21.324 634.444 22.02 634.444 22.86C634.444 23.7 634.156 24.408 633.58 24.984C633.004 25.536 632.272 25.812 631.384 25.812Z" fill="url(#paint20_linear_13_7110)"/>
</g>
</mask>
<g mask="url(#mask0_13_7110)">
<path id="Shine vector 1" d="M-14 -11.5L15.5 43.5" stroke="white" stroke-width="4"/>
<path id="Shine vector 2" d="M-20 -7L9.5 48" stroke="white" stroke-width="4"/>
</g>
</g>
</g>
<defs>
<filter id="filter0_d_13_7110" x="0" y="0" width="639" height="34" filterUnits="userSpaceOnUse" color-interpolation-filters="sRGB">
<feFlood flood-opacity="0" result="BackgroundImageFix"/>
<feColorMatrix in="SourceAlpha" type="matrix" values="0 0 0 0 0 0 0 0 0 0 0 0 0 0 0 0 0 0 127 0" result="hardAlpha"/>
<feOffset dy="4"/>
<feGaussianBlur stdDeviation="2"/>
<feComposite in2="hardAlpha" operator="out"/>
<feColorMatrix type="matrix" values="0 0 0 0 0 0 0 0 0 0 0 0 0 0 0 0 0 0 0.25 0"/>
<feBlend mode="normal" in2="BackgroundImageFix" result="effect1_dropShadow_13_7110"/>
<feBlend mode="normal" in="SourceGraphic" in2="effect1_dropShadow_13_7110" result="shape"/>
</filter>
<linearGradient id="paint0_linear_13_7110" x1="4.22119" y1="12.9782" x2="637.721" y2="12.9781" gradientUnits="userSpaceOnUse">
<stop stop-color="#B3B3B3"/>
<stop offset="1" stop-color="#808080"/>
</linearGradient>
<linearGradient id="paint1_linear_13_7110" x1="4.22119" y1="12.9782" x2="637.721" y2="12.9781" gradientUnits="userSpaceOnUse">
<stop stop-color="#B3B3B3"/>
<stop offset="1" stop-color="#808080"/>
</linearGradient>
<linearGradient id="paint2_linear_13_7110" x1="4.22119" y1="12.9782" x2="637.721" y2="12.9781" gradientUnits="userSpaceOnUse">
<stop stop-color="#B3B3B3"/>
<stop offset="1" stop-color="#808080"/>
</linearGradient>
<linearGradient id="paint3_linear_13_7110" x1="4.22119" y1="12.9782" x2="637.721" y2="12.9781" gradientUnits="userSpaceOnUse">
<stop stop-color="#B3B3B3"/>
<stop offset="1" stop-color="#808080"/>
</linearGradient>
<linearGradient id="paint4_linear_13_7110" x1="4.22119" y1="12.9782" x2="637.721" y2="12.9781" gradientUnits="userSpaceOnUse">
<stop stop-color="#B3B3B3"/>
<stop offset="1" stop-color="#808080"/>
</linearGradient>
<linearGradient id="paint5_linear_13_7110" x1="4.22119" y1="12.9782" x2="637.721" y2="12.9781" gradientUnits="userSpaceOnUse">
<stop stop-color="#B3B3B3"/>
<stop offset="1" stop-color="#808080"/>
</linearGradient>
<linearGradient id="paint6_linear_13_7110" x1="4.22119" y1="12.9782" x2="637.721" y2="12.9781" gradientUnits="userSpaceOnUse">
<stop stop-color="#B3B3B3"/>
<stop offset="1" stop-color="#808080"/>
</linearGradient>
<linearGradient id="paint7_linear_13_7110" x1="4.22119" y1="12.9782" x2="637.721" y2="12.9781" gradientUnits="userSpaceOnUse">
<stop stop-color="#B3B3B3"/>
<stop offset="1" stop-color="#808080"/>
</linearGradient>
<linearGradient id="paint8_linear_13_7110" x1="4.22119" y1="12.9782" x2="637.721" y2="12.9781" gradientUnits="userSpaceOnUse">
<stop stop-color="#B3B3B3"/>
<stop offset="1" stop-color="#808080"/>
</linearGradient>
<linearGradient id="paint9_linear_13_7110" x1="4.22119" y1="12.9782" x2="637.721" y2="12.9781" gradientUnits="userSpaceOnUse">
<stop stop-color="#B3B3B3"/>
<stop offset="1" stop-color="#808080"/>
</linearGradient>
<linearGradient id="paint10_linear_13_7110" x1="4.22119" y1="12.9782" x2="637.721" y2="12.9781" gradientUnits="userSpaceOnUse">
<stop stop-color="#B3B3B3"/>
<stop offset="1" stop-color="#808080"/>
</linearGradient>
<linearGradient id="paint11_linear_13_7110" x1="4.22119" y1="12.9782" x2="637.721" y2="12.9781" gradientUnits="userSpaceOnUse">
<stop stop-color="#B3B3B3"/>
<stop offset="1" stop-color="#808080"/>
</linearGradient>
<linearGradient id="paint12_linear_13_7110" x1="4.22119" y1="12.9782" x2="637.721" y2="12.9781" gradientUnits="userSpaceOnUse">
<stop stop-color="#B3B3B3"/>
<stop offset="1" stop-color="#808080"/>
</linearGradient>
<linearGradient id="paint13_linear_13_7110" x1="4.22119" y1="12.9782" x2="637.721" y2="12.9781" gradientUnits="userSpaceOnUse">
<stop stop-color="#B3B3B3"/>
<stop offset="1" stop-color="#808080"/>
</linearGradient>
<linearGradient id="paint14_linear_13_7110" x1="4.22119" y1="12.9782" x2="637.721" y2="12.9781" gradientUnits="userSpaceOnUse">
<stop stop-color="#B3B3B3"/>
<stop offset="1" stop-color="#808080"/>
</linearGradient>
<linearGradient id="paint15_linear_13_7110" x1="4.22119" y1="12.9782" x2="637.721" y2="12.9781" gradientUnits="userSpaceOnUse">
<stop stop-color="#B3B3B3"/>
<stop offset="1" stop-color="#808080"/>
</linearGradient>
<linearGradient id="paint16_linear_13_7110" x1="4.22119" y1="12.9782" x2="637.721" y2="12.9781" gradientUnits="userSpaceOnUse">
<stop stop-color="#B3B3B3"/>
<stop offset="1" stop-color="#808080"/>
</linearGradient>
<linearGradient id="paint17_linear_13_7110" x1="4.22119" y1="12.9782" x2="637.721" y2="12.9781" gradientUnits="userSpaceOnUse">
<stop stop-color="#B3B3B3"/>
<stop offset="1" stop-color="#808080"/>
</linearGradient>
<linearGradient id="paint18_linear_13_7110" x1="4.22119" y1="12.9782" x2="637.721" y2="12.9781" gradientUnits="userSpaceOnUse">
<stop stop-color="#B3B3B3"/>
<stop offset="1" stop-color="#808080"/>
</linearGradient>
<linearGradient id="paint19_linear_13_7110" x1="4.22119" y1="12.9782" x2="637.721" y2="12.9781" gradientUnits="userSpaceOnUse">
<stop stop-color="#B3B3B3"/>
<stop offset="1" stop-color="#808080"/>
</linearGradient>
<linearGradient id="paint20_linear_13_7110" x1="4.22119" y1="12.9782" x2="637.721" y2="12.9781" gradientUnits="userSpaceOnUse">
<stop stop-color="#B3B3B3"/>
<stop offset="1" stop-color="#808080"/>
</linearGradient>
<clipPath id="clip0_13_7110">
<rect width="630.444" height="25.812" fill="white" transform="translate(4)"/>
</clipPath>
</defs>
</svg>
